# xmcd CD database file generated by OrangeCD 4.3
#
# Track frame offsets:
#	150
#	24290
#	39155
#	60683
#	85138
#	105178
#	131225
#	163183
#	188030
#
# Disc length: 2724 seconds
#
# Revision: 8
# Processed by: cddbd v1.4PL0 Copyright (c) Steve Scherf et al.
# Submitted via: OrangeCD 4.3
#
DISCID=670aa209
DTITLE=Rory Gallagher - Calling Card
DYEAR=1900
DGENRE=Blues
TTITLE0=Do You Read Me
TTITLE1=Country Mile
TTITLE2=Moonchild
TTITLE3=Calling Card
TTITLE4=I'll Admit You're Gone
TTITLE5=Secret Agent
TTITLE6=Jackknife Beat
TTITLE7=Edged In Blue
TTITLE8=Barley And Grape Rag
EXTD=
EXTT0=
EXTT1=
EXTT2=
EXTT3=
EXTT4=
EXTT5=
EXTT6=
EXTT7=
EXTT8=
PLAYORDER=
